<?xml version="1.0" standalone="no"?>
<!DOCTYPE svg PUBLIC "-//W3C//DTD SVG 20010904//EN"
 "http://www.w3.org/TR/2001/REC-SVG-20010904/DTD/svg10.dtd">
<svg version="1.0" xmlns="http://www.w3.org/2000/svg"
 width="1230.000000pt" height="1230.000000pt" viewBox="0 0 1230.000000 1230.000000"
 preserveAspectRatio="xMidYMid meet">
<metadata>
Created by potrace 1.16, written by Peter Selinger 2001-2019
</metadata>
<g transform="translate(0.000000,1230.000000) scale(0.100000,-0.100000)"
fill="#000000" stroke="none">
<path d="M5478 9914 c-4 -3 -33 -8 -65 -11 -150 -12 -399 -53 -426 -70 -6 -3
-27 -10 -46 -14 -20 -4 -63 -15 -96 -24 -33 -10 -76 -21 -95 -25 -42 -10 -138
-44 -197 -71 -24 -10 -45 -19 -49 -19 -3 0 -35 -13 -71 -30 -35 -16 -67 -30
-71 -30 -12 0 -117 -54 -120 -62 -2 -5 -9 -8 -15 -8 -12 0 -105 -46 -203 -100
-91 -51 -317 -198 -351 -229 -10 -9 -45 -36 -78 -61 -118 -89 -158 -123 -245
-207 -213 -205 -248 -240 -256 -254 -5 -9 -35 -46 -66 -82 -91 -102 -148 -173
-148 -184 0 -6 -7 -16 -15 -23 -33 -27 -212 -292 -221 -327 -4 -13 -9 -23 -13
-23 -3 0 -12 -14 -19 -30 -8 -17 -19 -36 -25 -43 -10 -10 -24 -34 -78 -137
-16 -29 -119 -252 -119 -256 0 -3 -13 -32 -29 -67 -16 -34 -41 -98 -55 -142
-14 -44 -37 -114 -51 -155 -36 -100 -86 -290 -101 -380 -3 -19 -10 -46 -15
-60 -51 -139 -101 -966 -68 -1135 5 -27 14 -97 19 -155 14 -152 26 -223 40
-249 6 -13 10 -35 7 -50 -3 -14 1 -41 9 -60 8 -18 14 -48 14 -67 0 -18 4 -35
9 -38 5 -3 11 -23 14 -43 8 -59 28 -137 38 -147 5 -6 9 -23 9 -38 0 -15 5 -28
10 -28 6 0 10 -10 10 -22 0 -13 7 -36 15 -52 8 -15 15 -37 15 -47 0 -11 4 -27
9 -37 5 -9 17 -37 26 -62 26 -69 56 -142 71 -175 7 -16 27 -61 44 -100 17 -38
36 -79 42 -90 6 -11 27 -49 46 -85 44 -83 69 -127 92 -165 10 -16 30 -51 44
-78 24 -43 90 -145 136 -207 52 -71 153 -205 163 -216 7 -6 35 -38 62 -70 120
-140 291 -311 419 -419 26 -22 69 -58 95 -80 96 -81 342 -255 360 -255 5 0 11
-4 13 -8 1 -5 54 -37 117 -73 172 -97 157 -58 152 -388 -4 -309 -4 -306 57
-283 54 22 3331 33 3386 12 63 -24 61 -32 58 307 -3 231 -7 313 -16 328 -12
18 -10 24 18 51 17 17 42 37 56 44 14 7 27 16 30 19 3 4 40 28 82 55 43 26 84
53 90 59 7 7 32 25 55 41 24 16 67 49 97 75 30 25 84 70 119 99 184 150 483
483 628 698 29 44 55 81 58 84 13 10 91 137 91 147 0 5 9 18 20 28 11 10 20
23 20 29 0 6 16 38 36 71 41 66 124 228 124 240 0 6 62 141 91 197 5 10 9 27
9 38 0 11 5 20 10 20 6 0 10 10 10 23 0 12 6 31 13 42 7 11 18 36 24 55 6 19
23 76 38 125 15 50 31 99 35 110 13 34 31 104 36 141 2 20 7 41 11 47 3 5 8
26 10 46 2 19 8 40 12 46 5 5 11 28 14 50 3 22 13 85 22 140 32 193 38 293 39
625 1 326 -12 521 -35 536 -15 9 -10 61 7 75 29 24 108 64 379 194 77 37 165
78 195 93 30 14 57 30 58 34 2 4 8 8 13 8 10 0 95 39 279 127 74 36 169 81
210 101 41 19 118 56 170 81 53 25 109 51 125 57 59 21 102 34 116 34 8 0 25
9 39 19 18 14 21 22 13 33 -5 7 -13 25 -17 41 -3 15 -11 27 -16 27 -6 0 -10
10 -10 23 0 13 -4 27 -9 33 -5 5 -16 29 -24 54 -17 52 -36 60 -87 35 -19 -10
-51 -25 -70 -34 -19 -9 -36 -19 -38 -23 -2 -5 -10 -8 -18 -8 -13 0 -34 -9 -74
-32 -8 -4 -22 -11 -30 -15 -48 -20 -195 -90 -325 -153 -195 -95 -385 -186
-510 -245 -55 -25 -107 -51 -115 -56 -8 -5 -26 -14 -40 -20 -18 -7 -204 -98
-260 -126 -7 -4 -40 90 -40 113 0 10 -4 31 -9 48 -5 17 -14 53 -21 81 -6 27
-22 77 -36 112 -31 78 -32 75 100 212 56 58 164 170 242 250 78 80 195 202
260 271 65 69 155 161 199 206 44 45 110 112 146 150 68 71 149 147 214 199
77 61 78 66 38 111 -16 17 -53 58 -84 92 -31 34 -62 62 -69 62 -8 0 -45 -33
-83 -72 -38 -40 -156 -161 -261 -268 -105 -107 -288 -296 -406 -419 -118 -122
-237 -246 -265 -274 -27 -29 -72 -76 -98 -105 -52 -56 -65 -62 -73 -34 -17 57
-174 372 -185 372 -5 0 -9 6 -9 14 0 22 -123 227 -194 324 -23 31 -75 102
-116 157 -41 55 -81 107 -89 115 -16 15 -49 53 -136 155 -27 32 -55 63 -61 69
-89 87 -294 276 -314 291 -84 62 -218 165 -239 184 -13 11 -30 21 -38 21 -7 0
-13 5 -13 10 0 6 -5 10 -12 10 -6 0 -19 6 -27 14 -9 8 -38 26 -65 41 -28 15
-55 32 -60 37 -48 38 -441 239 -499 253 -15 4 -30 11 -33 16 -3 5 -12 9 -19 9
-8 0 -38 11 -67 24 -72 33 -164 66 -213 76 -22 4 -85 20 -140 35 -190 51 -308
75 -425 87 -110 11 -793 22 -802 12z m602 -1234 c74 -6 185 -19 245 -31 61
-11 128 -23 150 -25 22 -3 49 -9 60 -15 38 -17 217 -69 241 -69 13 0 24 -4 24
-8 0 -4 17 -14 38 -21 54 -18 116 -44 122 -52 3 -3 16 -10 30 -14 34 -10 204
-95 265 -134 28 -17 61 -36 75 -43 14 -7 27 -15 30 -19 4 -5 79 -57 164 -115
17 -12 43 -33 58 -47 15 -14 31 -27 37 -28 9 -4 125 -105 160 -140 128 -128
242 -257 316 -359 17 -23 38 -49 48 -58 9 -9 17 -21 17 -27 0 -6 10 -22 23
-36 12 -14 31 -41 41 -60 10 -19 39 -70 64 -114 61 -109 162 -325 162 -346 0
-6 6 -25 14 -42 8 -18 27 -77 41 -132 15 -55 33 -122 40 -150 49 -181 84 -525
74 -710 -16 -264 -42 -434 -98 -640 -109 -399 -288 -741 -554 -1060 -123 -148
-376 -381 -526 -485 -195 -135 -455 -270 -664 -345 -157 -56 -356 -108 -497
-129 -139 -21 -415 -46 -448 -41 -15 3 -99 9 -187 15 -659 41 -1279 326 -1766
810 -397 395 -657 886 -764 1440 -40 208 -63 583 -45 737 32 283 28 260 76
448 52 201 57 220 64 225 4 3 17 34 30 70 33 94 42 116 85 205 51 108 159 287
214 359 26 32 57 75 70 95 13 20 30 41 36 46 7 6 19 20 26 32 21 30 134 154
198 216 121 117 141 135 150 139 4 1 23 15 42 31 29 23 92 72 184 143 11 8 32
23 48 32 15 9 27 20 27 24 0 4 7 8 16 8 9 0 28 8 42 18 15 10 34 22 42 26 8 4
36 19 61 34 81 47 208 112 219 112 6 0 44 16 84 35 41 19 79 35 85 35 6 0 11
5 11 10 0 6 10 10 22 10 12 0 47 9 77 19 31 11 82 25 113 31 32 6 60 16 63 21
4 5 21 9 38 9 18 0 48 4 67 10 173 50 529 71 820 50z"/>
<path d="M5579 8592 c-163 -16 -352 -50 -454 -82 -182 -57 -200 -64 -305 -113
-41 -19 -99 -45 -127 -57 -29 -12 -53 -26 -53 -31 0 -5 -8 -9 -18 -9 -10 0
-39 -13 -65 -30 -26 -16 -52 -30 -57 -30 -6 0 -10 -4 -10 -10 0 -5 -4 -10 -10
-10 -11 0 -176 -110 -205 -137 -11 -11 -28 -24 -37 -29 -76 -42 -380 -350
-477 -484 -22 -30 -45 -61 -51 -67 -56 -66 -205 -335 -268 -483 -93 -221 -122
-318 -177 -597 -36 -180 -45 -540 -20 -758 48 -413 192 -803 428 -1155 39 -58
73 -107 76 -110 3 -3 18 -21 32 -40 30 -39 42 -54 137 -160 81 -91 230 -228
332 -306 434 -331 908 -507 1435 -534 181 -9 422 0 535 20 145 25 168 30 215
39 92 20 251 70 375 118 94 36 372 174 390 193 3 3 46 32 95 64 173 115 439
350 521 461 16 22 39 51 52 65 77 83 292 413 292 448 0 6 4 12 8 14 15 6 113
239 158 374 50 149 85 300 111 471 21 143 23 518 4 663 -16 121 -56 328 -70
360 -5 14 -22 66 -37 115 -55 183 -135 369 -227 525 -51 87 -165 261 -177 270
-3 3 -13 14 -21 26 -47 70 -192 228 -285 312 -32 30 -75 68 -94 86 -73 67
-309 236 -329 236 -6 0 -11 3 -11 8 0 9 -113 72 -129 72 -7 0 -21 8 -31 18
-11 10 -46 29 -77 41 -32 13 -85 36 -118 51 -101 47 -267 99 -445 139 -220 50
-557 68 -811 43z m1901 -961 c0 -5 10 -11 22 -13 12 -2 29 -15 37 -30 14 -24
13 -36 -4 -120 -17 -79 -20 -130 -19 -343 2 -312 2 -310 14 -353 8 -32 6 -41
-20 -82 -17 -26 -30 -54 -30 -64 0 -23 -22 -29 -76 -21 l-46 7 5 44 c4 39 2
47 -23 67 l-28 22 -5 203 c-3 128 -1 205 5 208 6 4 8 26 5 50 -2 24 -2 44 2
44 3 0 6 21 7 48 0 26 4 100 9 164 6 90 5 121 -5 133 -10 12 -9 16 5 21 55 22
145 31 145 15z m-385 -36 c0 -20 28 -75 37 -75 5 0 12 9 15 20 3 11 14 20 25
20 17 0 18 -5 14 -52 -3 -29 -11 -127 -16 -218 -9 -142 -35 -442 -56 -657 -5
-42 -11 -63 -20 -63 -7 0 -12 10 -12 23 3 45 -2 87 -10 87 -4 0 -14 -27 -20
-60 -12 -57 -14 -60 -43 -60 -25 0 -30 5 -35 30 -4 17 -10 30 -14 30 -5 0 -6
-9 -3 -20 8 -29 -33 -27 -42 2 -8 23 -1 145 17 306 6 56 8 105 5 108 -3 3 -51
-1 -107 -10 -55 -9 -119 -16 -140 -16 -39 0 -40 0 -40 -37 0 -62 -20 -317 -26
-336 -4 -13 -14 -17 -37 -15 -27 3 -33 8 -43 43 l-12 40 -3 -35 c-3 -23 -9
-35 -19 -35 -11 0 -14 10 -13 39 3 37 2 38 -24 31 -17 -4 -29 -2 -34 7 -17 27
-2 406 21 539 10 54 21 180 24 264 l1 40 50 0 c47 0 51 -2 64 -32 16 -35 35
-43 45 -18 3 8 12 15 21 15 19 0 19 -28 3 -207 -6 -73 -9 -136 -6 -139 4 -3
42 1 85 10 43 8 105 18 138 21 94 10 98 12 93 51 -2 18 0 35 5 37 5 1 4 21 -2
44 -11 41 -7 71 13 86 8 6 7 10 -1 14 -16 6 -18 113 -3 113 6 0 10 9 10 19 0
11 -4 23 -10 26 -18 11 -10 26 13 23 12 -2 21 -8 20 -13 -1 -6 -4 -93 -6 -195
-4 -116 -3 -164 3 -130 4 30 8 114 9 187 1 107 4 135 17 148 17 17 49 17 49 0z
m-890 -116 c-4 -5 -23 -10 -43 -11 -20 0 -3 -4 38 -7 81 -7 130 -31 130 -61 0
-13 -9 -20 -27 -23 -20 -3 -15 -4 15 -6 52 -1 54 -16 5 -29 -21 -5 -30 -10
-20 -11 29 -2 19 -21 -11 -21 -44 0 -131 -29 -197 -65 -72 -41 -171 -127 -162
-142 4 -6 26 -13 49 -17 101 -16 216 -72 302 -145 72 -61 81 -79 67 -124 -33
-100 -159 -242 -250 -284 -39 -17 -51 -27 -41 -33 15 -10 -22 -31 -109 -62
-75 -27 -116 -34 -107 -19 4 6 18 11 32 11 13 0 24 5 24 10 0 6 -10 10 -22 10
-21 0 -44 12 -145 75 -78 48 -66 153 14 123 23 -8 44 -5 121 21 158 54 262
136 262 207 0 31 -3 34 -52 49 -29 8 -94 20 -144 25 -50 5 -99 12 -108 16 -10
4 -18 0 -22 -10 -5 -13 -15 -9 -62 20 -72 45 -112 83 -112 104 0 9 11 38 24
64 13 27 27 59 30 72 8 30 75 106 87 98 9 -5 102 72 164 136 l34 35 121 2 c72
1 118 -2 115 -8z m-713 -106 c10 -9 19 -32 20 -52 l1 -36 4 33 c4 32 23 41 49
24 11 -7 44 -626 44 -828 0 -76 -2 -83 -25 -98 -14 -9 -25 -23 -25 -30 0 -8
-11 -16 -25 -18 -23 -5 -24 -2 -27 49 -2 29 -7 53 -13 53 -5 0 -8 -15 -7 -33
2 -23 -3 -38 -17 -51 -21 -19 -21 -19 -21 42 0 53 -4 65 -26 87 -31 31 -31 31
-143 -37 -80 -48 -87 -50 -155 -50 -39 0 -78 1 -87 1 -24 1 -78 60 -105 112
-51 102 -75 194 -80 317 -9 206 17 462 47 462 18 0 21 -31 5 -49 -12 -13 -14
-21 -6 -26 6 -4 9 -12 7 -19 -2 -6 -1 -20 4 -31 7 -18 8 -17 8 6 2 44 30 125
51 144 19 17 21 17 40 0 12 -11 20 -31 20 -52 0 -18 5 -33 10 -33 6 0 10 11
10 24 0 32 18 43 37 23 14 -14 14 -24 0 -104 -25 -137 -40 -329 -33 -413 9
-102 41 -186 68 -177 4 1 65 80 137 176 102 135 131 180 131 204 0 17 -9 105
-21 195 -19 153 -19 166 -4 181 15 15 17 14 31 -3 13 -18 15 -18 27 -4 10 13
28 24 46 27 3 1 13 -6 23 -16z m-828 -74 c-3 -5 -22 -10 -42 -10 -20 -1 -4 -5
37 -9 48 -5 83 -15 100 -28 31 -23 34 -45 6 -50 -43 -8 -38 -22 9 -22 29 0 45
-4 41 -10 -3 -5 -23 -10 -43 -11 -36 0 -36 -1 -12 -11 23 -10 21 -12 -35 -23
-70 -14 -80 -18 -162 -57 -61 -29 -173 -123 -173 -145 0 -6 28 -16 63 -23 123
-24 260 -99 335 -184 28 -33 30 -38 20 -73 -25 -94 -165 -255 -252 -293 -30
-12 -44 -24 -40 -33 6 -15 -19 -28 -120 -63 -76 -26 -96 -29 -96 -14 0 6 14
10 32 10 39 0 27 13 -28 28 -22 7 -52 21 -65 33 -13 11 -36 28 -51 37 -15 9
-34 30 -43 48 -19 40 -19 39 1 59 12 12 27 14 58 10 66 -10 246 61 321 126 61
54 83 119 47 138 -40 21 -144 40 -242 44 -112 4 -122 8 -202 70 -20 16 -39 36
-43 44 -3 9 13 53 35 100 22 47 40 88 40 92 0 10 62 55 76 56 10 0 124 98 169
145 23 24 30 25 144 26 68 1 118 -2 115 -7z m3230 -1385 c9 -3 13 -11 10 -18
-3 -6 1 -3 9 6 12 15 22 16 73 8 32 -6 63 -10 67 -10 5 0 -1 -13 -12 -29 -26
-36 -27 -51 -3 -51 24 0 62 28 62 46 0 8 9 14 20 14 11 0 20 -7 20 -15 0 -8 5
-15 11 -15 5 0 -6 -17 -25 -37 -20 -21 -36 -41 -36 -45 0 -4 -7 -14 -16 -22
-31 -31 -203 -298 -247 -384 -54 -103 -81 -173 -101 -262 -8 -36 -24 -87 -35
-113 -12 -27 -18 -53 -15 -58 7 -12 -102 -137 -124 -143 -10 -2 -38 -7 -64
-11 l-46 -6 14 47 c13 45 13 49 -6 69 -20 21 -20 23 -3 106 10 46 26 93 35
103 10 11 18 27 18 37 0 9 7 19 15 23 17 6 17 6 6 -52 -5 -23 -5 -45 0 -47 11
-8 35 119 31 168 -3 25 -32 21 -32 -5 0 -16 -3 -19 -11 -11 -6 6 -11 37 -11
69 -1 52 -6 66 -43 119 -24 33 -53 71 -66 86 -13 14 -36 43 -51 65 -15 21 -63
75 -108 119 -78 78 -96 103 -65 91 25 -9 17 11 -16 39 -37 31 -33 40 15 31 41
-8 53 -21 36 -41 -9 -11 -9 -15 -1 -15 6 0 11 5 11 11 0 5 5 7 11 4 5 -4 26 1
46 10 l35 17 51 -52 c40 -41 47 -54 36 -62 -11 -7 -9 -8 6 -4 15 4 44 -17 115
-83 52 -49 99 -87 105 -84 5 2 20 25 33 51 13 26 35 61 49 77 21 26 23 27 12
5 -7 -14 -30 -53 -51 -88 -39 -65 -48 -102 -24 -102 11 0 110 139 125 175 2 5
7 12 11 15 7 5 50 81 93 163 14 26 25 57 24 68 -2 23 -1 24 -57 -51 -58 -78
-66 -79 -15 -2 31 45 58 82 60 82 2 0 10 -3 19 -6z m-1242 -80 c64 -6 68 -8
97 -49 17 -24 31 -48 31 -53 0 -5 7 -12 15 -16 11 -4 14 -14 10 -33 -4 -21 -3
-23 3 -9 6 14 11 16 16 8 4 -7 4 -16 1 -22 -3 -6 1 -7 9 -4 9 3 16 1 16 -5 0
-6 25 -50 56 -98 31 -48 64 -102 72 -121 16 -33 16 -33 76 -27 l61 5 -44 -13
c-50 -14 -67 -37 -27 -37 13 0 28 -5 31 -10 4 -6 14 -9 23 -6 47 13 112 16
112 7 0 -10 -60 -41 -132 -70 l-28 -10 20 -34 c11 -19 20 -49 20 -68 0 -19 -1
-97 -1 -174 0 -167 -2 -180 -20 -180 -10 0 -14 -15 -14 -58 l1 -58 -61 2 c-33
1 -63 7 -67 13 -5 7 -8 6 -9 -4 0 -8 -9 3 -19 25 l-18 40 -12 -30 -13 -30 -8
40 c-4 22 -8 54 -8 72 -1 26 2 30 19 26 17 -5 20 0 20 28 0 19 -7 47 -15 63
-8 15 -15 42 -15 58 0 35 -21 34 -31 -3 -6 -21 -7 -22 -10 -4 -1 11 -1 28 -1
38 1 10 -3 15 -8 12 -6 -4 -10 5 -10 20 0 20 4 26 15 21 12 -4 15 3 15 32 0
20 -4 42 -8 48 -5 9 -57 -7 -175 -51 -93 -34 -173 -67 -179 -73 -22 -22 11
-20 62 4 34 16 63 23 80 19 14 -3 45 1 69 10 52 18 51 18 51 3 0 -7 -35 -26
-78 -42 -118 -44 -211 -96 -236 -130 -12 -17 -35 -70 -51 -118 -16 -49 -32
-88 -35 -89 -3 0 -52 -2 -110 -3 -110 -2 -140 5 -140 30 0 8 38 128 84 267 46
139 92 283 102 321 17 65 19 68 32 48 22 -34 42 -28 42 13 0 25 -4 33 -14 29
-11 -4 -16 8 -23 48 -8 47 -7 54 10 61 15 6 17 10 8 21 -7 8 -9 25 -5 41 6 23
10 25 35 20 21 -5 29 -3 29 7 0 20 -21 38 -43 38 -17 0 -18 6 -13 58 3 31 5
71 5 89 0 39 16 50 40 29 16 -15 22 -14 71 11 68 34 120 44 140 27 9 -7 45
-16 82 -20z m-801 -145 c20 -22 29 -41 29 -66 0 -43 22 -40 31 5 3 17 2 29 -2
26 -5 -3 -9 0 -9 5 0 17 30 13 37 -5 4 -11 8 -12 13 -4 11 17 48 -146 71 -316
29 -204 33 -687 6 -639 -4 9 -12 13 -17 10 -8 -5 -336 -6 -521 -2 l-36 0 65
101 c36 56 106 160 157 232 57 80 95 145 99 167 7 37 -45 320 -79 430 -20 68
-4 102 29 56 8 -12 12 -29 8 -38 -5 -14 -4 -14 11 1 9 9 17 23 17 31 0 13 32
35 53 36 5 1 22 -13 38 -30z m-619 -6 c9 -10 19 -36 22 -57 8 -42 24 -65 43
-59 6 2 9 12 7 21 -2 9 -1 31 4 47 l9 30 14 -25 c11 -20 14 -92 15 -375 1
-359 10 -460 47 -534 l14 -28 -111 -2 c-61 -1 -113 -7 -117 -12 -13 -21 -77
164 -81 236 -3 36 -5 40 -28 37 -64 -9 -130 -78 -130 -136 0 -38 -28 -139 -30
-111 -1 19 -2 19 -9 1 -6 -17 -17 -19 -96 -17 -56 2 -92 7 -97 14 -5 8 -8 9
-8 1 0 -6 -11 -11 -25 -11 -23 0 -24 0 -10 28 33 64 8 67 -35 4 -17 -25 -35
-45 -41 -45 -6 0 -3 10 5 22 25 36 20 41 -35 34 -28 -4 -56 -3 -62 2 -7 5 -24
12 -39 16 -64 15 -19 64 90 96 61 19 52 32 -17 24 -58 -6 -60 -6 -93 28 -67
69 -71 75 -58 97 9 19 20 21 88 21 54 0 114 9 193 29 63 17 161 42 219 57 115
29 145 44 88 44 -19 0 -41 7 -48 15 -10 12 0 14 76 11 l87 -4 -7 193 c-5 131
-4 207 4 234 10 40 30 56 30 26 0 -8 -4 -15 -10 -15 -16 0 -11 -50 5 -56 12
-5 13 -9 4 -21 -10 -11 -9 -17 3 -29 13 -13 14 -22 5 -52 -6 -21 -16 -41 -22
-45 -6 -5 -1 -7 12 -4 22 5 22 4 25 -127 2 -81 7 -130 13 -128 6 2 9 11 8 20
-1 9 -4 93 -8 186 -9 261 26 389 87 319z m-607 -90 c28 -9 52 -19 55 -22 3 -3
22 -17 43 -31 30 -20 43 -40 68 -104 16 -43 27 -81 24 -84 -8 -8 -25 18 -25
39 0 20 -29 34 -43 20 -6 -6 -5 -21 2 -42 6 -17 11 -38 11 -45 0 -19 -46 -18
-54 1 -3 8 -18 15 -32 15 -15 0 -35 6 -43 14 -43 36 -141 47 -192 20 -122 -63
-253 -302 -283 -519 -9 -61 -16 -126 -16 -145 0 -24 -3 -31 -9 -21 -7 10 -33
13 -110 12 -55 -1 -101 2 -101 6 0 4 -5 50 -10 102 -11 107 -2 206 31 341 26
103 41 134 37 73 -2 -24 -2 -43 0 -43 2 0 10 16 18 35 15 37 74 132 102 167
40 49 99 114 120 134 27 26 14 41 -20 24 -18 -9 -16 -4 9 18 22 21 51 35 101
46 83 19 158 21 168 5 5 -8 9 -7 15 4 10 17 27 14 134 -20z"/>
<path d="M7959 5763 c-11 -23 -65 -108 -129 -203 -92 -138 -119 -200 -87 -200
18 0 27 11 66 85 18 33 40 74 50 90 10 17 32 56 49 89 18 32 46 78 62 101 17
24 30 48 30 54 0 21 -27 10 -41 -16z"/>
<path d="M6576 5558 c-3 -7 -7 -35 -10 -63 -3 -27 -16 -92 -28 -142 -12 -51
-19 -96 -15 -99 4 -4 37 0 74 9 69 17 123 57 123 92 0 9 -26 60 -57 115 -54
93 -78 117 -87 88z"/>
</g>
</svg>
